<mxfile host="app.diagrams.net" agent="Mozilla/5.0 (Windows NT 10.0; Win64; x64) AppleWebKit/537.36 (KHTML, like Gecko) Chrome/133.0.0.0 Safari/537.36" version="26.0.16">
  <diagram name="Página-1" id="JJ-OYNha6cMFUj9l-0EL">
    <mxGraphModel dx="1434" dy="780" grid="1" gridSize="10" guides="1" tooltips="1" connect="1" arrows="1" fold="1" page="1" pageScale="1" pageWidth="1169" pageHeight="827" math="0" shadow="0">
      <root>
        <mxCell id="0" />
        <mxCell id="1" parent="0" />
        <mxCell id="hmbs_IVqfiLHla6d1OVb-1" value="Empleado" style="shape=umlActor;verticalLabelPosition=bottom;verticalAlign=top;html=1;" vertex="1" parent="1">
          <mxGeometry x="130" y="354" width="30" height="60" as="geometry" />
        </mxCell>
        <mxCell id="hmbs_IVqfiLHla6d1OVb-2" value="Empleado" style="shape=umlActor;verticalLabelPosition=bottom;verticalAlign=top;html=1;" vertex="1" parent="1">
          <mxGeometry x="1120" y="330" width="30" height="60" as="geometry" />
        </mxCell>
        <mxCell id="hmbs_IVqfiLHla6d1OVb-4" value="CU Sistema de Renta" style="swimlane;whiteSpace=wrap;html=1;" vertex="1" parent="1">
          <mxGeometry x="340" y="140" width="730" height="525" as="geometry" />
        </mxCell>
        <mxCell id="hmbs_IVqfiLHla6d1OVb-10" value="actualizar catalogo" style="ellipse;whiteSpace=wrap;html=1;" vertex="1" parent="hmbs_IVqfiLHla6d1OVb-4">
          <mxGeometry x="380" y="284.5" width="120" height="31" as="geometry" />
        </mxCell>
        <mxCell id="hmbs_IVqfiLHla6d1OVb-13" value="añadir titulo" style="ellipse;whiteSpace=wrap;html=1;" vertex="1" parent="hmbs_IVqfiLHla6d1OVb-4">
          <mxGeometry x="380" y="124.5" width="120" height="31" as="geometry" />
        </mxCell>
        <mxCell id="hmbs_IVqfiLHla6d1OVb-12" value="remover titulo" style="ellipse;whiteSpace=wrap;html=1;" vertex="1" parent="hmbs_IVqfiLHla6d1OVb-4">
          <mxGeometry x="380" y="204.5" width="120" height="31" as="geometry" />
        </mxCell>
        <mxCell id="hmbs_IVqfiLHla6d1OVb-15" value="Mantenimiento" style="ellipse;whiteSpace=wrap;html=1;" vertex="1" parent="hmbs_IVqfiLHla6d1OVb-4">
          <mxGeometry x="550" y="204.5" width="140" height="30" as="geometry" />
        </mxCell>
        <mxCell id="hmbs_IVqfiLHla6d1OVb-19" value="" style="endArrow=block;dashed=1;endFill=0;endSize=12;html=1;rounded=0;entryX=1;entryY=0.5;entryDx=0;entryDy=0;exitX=0;exitY=0.5;exitDx=0;exitDy=0;" edge="1" parent="hmbs_IVqfiLHla6d1OVb-4" source="hmbs_IVqfiLHla6d1OVb-15" target="hmbs_IVqfiLHla6d1OVb-13">
          <mxGeometry width="160" relative="1" as="geometry">
            <mxPoint x="190" y="274.5" as="sourcePoint" />
            <mxPoint x="350" y="274.5" as="targetPoint" />
          </mxGeometry>
        </mxCell>
        <mxCell id="hmbs_IVqfiLHla6d1OVb-18" value="" style="endArrow=block;dashed=1;endFill=0;endSize=12;html=1;rounded=0;entryX=1;entryY=0.5;entryDx=0;entryDy=0;exitX=0;exitY=0.5;exitDx=0;exitDy=0;" edge="1" parent="hmbs_IVqfiLHla6d1OVb-4" source="hmbs_IVqfiLHla6d1OVb-15" target="hmbs_IVqfiLHla6d1OVb-10">
          <mxGeometry width="160" relative="1" as="geometry">
            <mxPoint x="180" y="264.5" as="sourcePoint" />
            <mxPoint x="340" y="264.5" as="targetPoint" />
          </mxGeometry>
        </mxCell>
        <mxCell id="hmbs_IVqfiLHla6d1OVb-17" value="" style="endArrow=block;dashed=1;endFill=0;endSize=12;html=1;rounded=0;entryX=1;entryY=0.5;entryDx=0;entryDy=0;exitX=0;exitY=0.5;exitDx=0;exitDy=0;" edge="1" parent="hmbs_IVqfiLHla6d1OVb-4" source="hmbs_IVqfiLHla6d1OVb-15" target="hmbs_IVqfiLHla6d1OVb-12">
          <mxGeometry width="160" relative="1" as="geometry">
            <mxPoint x="170" y="254.5" as="sourcePoint" />
            <mxPoint x="330" y="254.5" as="targetPoint" />
          </mxGeometry>
        </mxCell>
        <mxCell id="hmbs_IVqfiLHla6d1OVb-21" value="Disponibilidad del titulo" style="ellipse;whiteSpace=wrap;html=1;" vertex="1" parent="hmbs_IVqfiLHla6d1OVb-4">
          <mxGeometry x="50" y="135" width="120" height="31" as="geometry" />
        </mxCell>
        <mxCell id="hmbs_IVqfiLHla6d1OVb-20" value="Devolución de titulo" style="ellipse;whiteSpace=wrap;html=1;" vertex="1" parent="hmbs_IVqfiLHla6d1OVb-4">
          <mxGeometry x="50" y="223.5" width="120" height="31" as="geometry" />
        </mxCell>
        <mxCell id="hmbs_IVqfiLHla6d1OVb-23" value="Préstamo de titulo" style="ellipse;whiteSpace=wrap;html=1;" vertex="1" parent="hmbs_IVqfiLHla6d1OVb-4">
          <mxGeometry x="50" y="316" width="120" height="31" as="geometry" />
        </mxCell>
        <mxCell id="hmbs_IVqfiLHla6d1OVb-30" value="Pagar titulo" style="endArrow=open;endFill=1;endSize=12;html=1;rounded=0;entryX=0.5;entryY=1;entryDx=0;entryDy=0;exitX=0.5;exitY=0;exitDx=0;exitDy=0;" edge="1" parent="hmbs_IVqfiLHla6d1OVb-4" source="hmbs_IVqfiLHla6d1OVb-23" target="hmbs_IVqfiLHla6d1OVb-20">
          <mxGeometry width="160" relative="1" as="geometry">
            <mxPoint x="170" y="570" as="sourcePoint" />
            <mxPoint x="330" y="570" as="targetPoint" />
          </mxGeometry>
        </mxCell>
        <mxCell id="hmbs_IVqfiLHla6d1OVb-5" value="Cliente" style="shape=umlActor;verticalLabelPosition=bottom;verticalAlign=top;html=1;outlineConnect=0;" vertex="1" parent="1">
          <mxGeometry x="130" y="80" width="30" height="60" as="geometry" />
        </mxCell>
        <mxCell id="hmbs_IVqfiLHla6d1OVb-7" style="edgeStyle=orthogonalEdgeStyle;rounded=0;orthogonalLoop=1;jettySize=auto;html=1;exitX=0.5;exitY=0.5;exitDx=0;exitDy=0;exitPerimeter=0;entryX=0.5;entryY=0;entryDx=0;entryDy=0;entryPerimeter=0;" edge="1" parent="1" source="hmbs_IVqfiLHla6d1OVb-5" target="hmbs_IVqfiLHla6d1OVb-1">
          <mxGeometry relative="1" as="geometry" />
        </mxCell>
        <mxCell id="hmbs_IVqfiLHla6d1OVb-25" value="" style="endArrow=open;endFill=1;endSize=12;html=1;rounded=0;entryX=0;entryY=0.5;entryDx=0;entryDy=0;" edge="1" parent="1" source="hmbs_IVqfiLHla6d1OVb-1" target="hmbs_IVqfiLHla6d1OVb-21">
          <mxGeometry width="160" relative="1" as="geometry">
            <mxPoint x="500" y="400" as="sourcePoint" />
            <mxPoint x="660" y="400" as="targetPoint" />
          </mxGeometry>
        </mxCell>
        <mxCell id="hmbs_IVqfiLHla6d1OVb-26" value="" style="endArrow=open;endFill=1;endSize=12;html=1;rounded=0;entryX=0;entryY=0.5;entryDx=0;entryDy=0;" edge="1" parent="1" source="hmbs_IVqfiLHla6d1OVb-1" target="hmbs_IVqfiLHla6d1OVb-23">
          <mxGeometry width="160" relative="1" as="geometry">
            <mxPoint x="25" y="634" as="sourcePoint" />
            <mxPoint x="265" y="530" as="targetPoint" />
          </mxGeometry>
        </mxCell>
        <mxCell id="hmbs_IVqfiLHla6d1OVb-27" value="" style="endArrow=open;endFill=1;endSize=12;html=1;rounded=0;entryX=0;entryY=0.5;entryDx=0;entryDy=0;" edge="1" parent="1" source="hmbs_IVqfiLHla6d1OVb-1" target="hmbs_IVqfiLHla6d1OVb-20">
          <mxGeometry width="160" relative="1" as="geometry">
            <mxPoint x="180" y="379" as="sourcePoint" />
            <mxPoint x="420" y="275" as="targetPoint" />
          </mxGeometry>
        </mxCell>
        <mxCell id="hmbs_IVqfiLHla6d1OVb-29" value="" style="endArrow=open;endFill=1;endSize=12;html=1;rounded=0;entryX=1;entryY=0.5;entryDx=0;entryDy=0;exitX=0.5;exitY=0.5;exitDx=0;exitDy=0;exitPerimeter=0;" edge="1" parent="1" source="hmbs_IVqfiLHla6d1OVb-2" target="hmbs_IVqfiLHla6d1OVb-15">
          <mxGeometry width="160" relative="1" as="geometry">
            <mxPoint x="990" y="710" as="sourcePoint" />
            <mxPoint x="1150" y="710" as="targetPoint" />
          </mxGeometry>
        </mxCell>
      </root>
    </mxGraphModel>
  </diagram>
</mxfile>
